<?xml version="1.0" encoding="UTF-8"?>
<svg width="1440" height="400" viewBox="0 0 1440 400" fill="none" xmlns="http://www.w3.org/2000/svg">
  <g opacity="0.1">
    <path d="M-100 50L50 200L-100 350" stroke="white" stroke-width="2"/>
    <path d="M0 50L150 200L0 350" stroke="white" stroke-width="2"/>
    <path d="M100 50L250 200L100 350" stroke="white" stroke-width="2"/>
    <path d="M200 50L350 200L200 350" stroke="white" stroke-width="2"/>
    <path d="M300 50L450 200L300 350" stroke="white" stroke-width="2"/>
    <path d="M400 50L550 200L400 350" stroke="white" stroke-width="2"/>
    <path d="M500 50L650 200L500 350" stroke="white" stroke-width="2"/>
    <path d="M600 50L750 200L600 350" stroke="white" stroke-width="2"/>
    <path d="M700 50L850 200L700 350" stroke="white" stroke-width="2"/>
    <path d="M800 50L950 200L800 350" stroke="white" stroke-width="2"/>
    <path d="M900 50L1050 200L900 350" stroke="white" stroke-width="2"/>
    <path d="M1000 50L1150 200L1000 350" stroke="white" stroke-width="2"/>
    <path d="M1100 50L1250 200L1100 350" stroke="white" stroke-width="2"/>
    <path d="M1200 50L1350 200L1200 350" stroke="white" stroke-width="2"/>
    <path d="M1300 50L1450 200L1300 350" stroke="white" stroke-width="2"/>
    <path d="M1400 50L1550 200L1400 350" stroke="white" stroke-width="2"/>
  </g>
  <g opacity="0.1">
    <path d="M-100 0L100 200L-100 400" stroke="white" stroke-width="3"/>
    <path d="M100 0L300 200L100 400" stroke="white" stroke-width="3"/>
    <path d="M300 0L500 200L300 400" stroke="white" stroke-width="3"/>
    <path d="M500 0L700 200L500 400" stroke="white" stroke-width="3"/>
    <path d="M700 0L900 200L700 400" stroke="white" stroke-width="3"/>
    <path d="M900 0L1100 200L900 400" stroke="white" stroke-width="3"/>
    <path d="M1100 0L1300 200L1100 400" stroke="white" stroke-width="3"/>
    <path d="M1300 0L1500 200L1300 400" stroke="white" stroke-width="3"/>
  </g>
</svg>